<?xml version="1.0" ?><!DOCTYPE svg  PUBLIC '-//W3C//DTD SVG 1.1//EN'  'http://www.w3.org/Graphics/SVG/1.1/DTD/svg11.dtd'><svg enable-background="new 0 0 130 130" height="130px" id="Layer_1" version="1.1" viewBox="0 0 130 130" width="130px" xml:space="preserve" xmlns="http://www.w3.org/2000/svg" xmlns:xlink="http://www.w3.org/1999/xlink"><g><circle cx="65" cy="64.999" fill="#D94843" r="64"/><g><circle cx="44.001" cy="84.212" fill="#FFFFFF" r="2.034"/><circle cx="48.119" cy="74.604" fill="#FFFFFF" r="2.034"/><circle cx="58.931" cy="85.229" fill="#FFFFFF" r="2.034"/><circle cx="61.219" cy="68.604" fill="#FFFFFF" r="2.034"/><circle cx="69.15" cy="76.077" fill="#FFFFFF" r="2.033"/><path d="M91.775,82.634c0,1.124-0.912,2.036-2.034,2.036c-1.124,0-2.033-0.912-2.033-2.036    c0-1.12,0.909-2.032,2.033-2.032C90.863,80.602,91.775,81.514,91.775,82.634z" fill="#FFFFFF"/><circle cx="69.456" cy="56.401" fill="#FFFFFF" r="2.034"/><circle cx="55.575" cy="51.979" fill="#FFFFFF" r="2.034"/><circle cx="77.389" cy="63.875" fill="#FFFFFF" r="2.034"/><circle cx="70.371" cy="63.57" fill="#FFFFFF" r="2.034"/><circle cx="54.508" cy="63.875" fill="#FFFFFF" r="2.034"/><circle cx="60.303" cy="76.229" fill="#FFFFFF" r="2.034"/><circle cx="82.725" cy="42.98" fill="#FFFFFF" r="2.034"/><circle cx="89.131" cy="54.418" fill="#FFFFFF" r="2.034"/><circle cx="79.064" cy="52.131" fill="#FFFFFF" r="2.034"/><circle cx="94.471" cy="44.047" fill="#FFFFFF" r="2.034"/><circle cx="89.889" cy="35.965" fill="#FFFFFF" r="2.034"/><g><path d="M99.809,97.559H29.977V32.607c0-0.829,0.671-1.5,1.5-1.5s1.5,0.671,1.5,1.5v61.952h66.832     c0.828,0,1.5,0.672,1.5,1.5S100.637,97.559,99.809,97.559z" fill="#FFFFFF"/></g></g></g></svg>